<?xml version="1.0" encoding="UTF-8"?>
<svg id="Layer_1" data-name="Layer 1" xmlns="http://www.w3.org/2000/svg" viewBox="0 0 512 512">
	<defs>
		<style>
			.cls-1 {
				fill: #201d1d;
			}
		</style>
	</defs>
	<path class="cls-1"
		d="m255.48,139.66c-2.52,0-4.86,1.29-6.2,3.41-5.58,8.78-54.51,86.69-54.51,117.42,0,33.48,27.24,60.72,60.72,60.72s60.72-27.24,60.72-60.72c0-30.72-48.93-108.64-54.51-117.42-1.35-2.12-3.69-3.41-6.2-3.41Zm0,166.84c-25.37,0-46.02-20.64-46.02-46.02,0-19.69,29.1-71.69,46.02-99.53,16.92,27.84,46.02,79.82,46.02,99.53,0,25.37-20.64,46.02-46.02,46.02Z" />
	<path class="cls-1"
		d="m86.44,364.36c1.39,1.22,3.12,1.82,4.83,1.82,2.05,0,4.09-.85,5.54-2.52l53.14-60.83c5.5,10.18,12.44,19.48,20.72,27.76,11.01,11.01,23.84,19.66,38.12,25.7,14.79,6.25,30.5,9.43,46.69,9.43s31.9-3.17,46.68-9.43c14.28-6.04,27.11-14.69,38.12-25.7,8.29-8.29,15.23-17.6,20.74-27.79l53.08,60.41c2.68,3.05,7.32,3.35,10.37.67,3.05-2.68,3.35-7.33.67-10.38l-60.41-68.75c-1.67-1.9-4.2-2.81-6.7-2.4-2.5.4-4.61,2.06-5.6,4.39-5.3,12.53-12.89,23.78-22.55,33.45-9.67,9.67-20.92,17.25-33.45,22.55-12.97,5.49-26.75,8.27-40.96,8.27s-27.99-2.78-40.96-8.27c-12.53-5.3-23.78-12.89-33.45-22.55-9.67-9.67-17.25-20.92-22.55-33.45-.99-2.33-3.11-3.99-5.61-4.39-2.5-.4-5.03.51-6.7,2.42l-60.47,69.22c-2.67,3.06-2.36,7.7.7,10.37Z" />
	<path class="cls-1"
		d="m149.37,260.24c4.06,0,7.35-3.29,7.35-7.35,0-12.27,5.34-29.8,15.87-52.1,5.03-10.64,11.28-22.42,18.58-35.02l17.48-28.61c13.6-21.27,27.18-40.55,36.19-52.99,4.22-5.83,7.86-10.73,10.63-14.43,2.77,3.7,6.4,8.6,10.63,14.43,9.01,12.44,22.6,31.72,36.19,52.98l19.04,31.32c6.63,11.57,12.36,22.45,17.03,32.32,10.53,22.3,15.87,39.83,15.87,52.1,0,4.06,3.29,7.35,7.35,7.35s7.35-3.29,7.35-7.35c0-14.67-5.65-33.76-17.28-58.38-4.84-10.25-10.77-21.5-17.61-33.44-.03-.05-.06-.11-.1-.16l-19.13-31.47s-.06-.09-.09-.14c-13.8-21.59-27.58-41.15-36.72-53.76-9.91-13.67-16.45-22.12-16.73-22.47-1.39-1.79-3.54-2.84-5.81-2.84s-4.41,1.05-5.81,2.84c-.27.35-6.82,8.8-16.73,22.47-9.13,12.61-22.92,32.17-36.72,53.76-.03.04-.05.08-.08.13l-17.56,28.75s-.06.1-.09.14c-7.53,12.98-13.99,25.16-19.2,36.19-11.63,24.62-17.28,43.72-17.28,58.38,0,4.06,3.29,7.35,7.35,7.35Z" />
	<polygon class="cls-1"
		points="129.87 439.3 128.33 447.01 126.8 438.99 120.83 410.21 109.75 410.21 104.09 439.16 102.62 447.01 101.19 438.99 94.54 410.21 83.39 410.21 97.64 460.47 107.39 460.47 113.46 431.08 115.24 421.36 117.01 431.08 123.08 460.47 133.1 460.47 147.26 410.21 136.58 410.21 129.87 439.3" />
	<rect class="cls-1" x="149.25" y="409.91" width="9.85" height="8.97" rx="4.48" ry="4.48" />
	<rect class="cls-1" x="149.25" y="423.31" width="9.85" height="37.17" />
	<path class="cls-1"
		d="m188.96,428.01c-1.09-1.75-2.51-3.12-4.26-4.11-1.75-.99-3.75-1.48-6-1.48-4.89,0-8.79,1.82-11.71,5.46-2.92,3.64-4.38,8.63-4.38,14.97,0,5.5,1.48,10.01,4.45,13.52,2.97,3.51,6.62,5.27,10.96,5.27,2.64,0,4.84-.5,6.62-1.5,1.77-1,3.35-2.6,4.74-4.81v5.15h9.45v-50.19h-9.85v17.73Zm-1.88,22.37c-1.43,2.05-3.52,3.07-6.27,3.07s-4.8-1.03-6.14-3.1c-1.36-2.05-2.05-4.79-2.05-8.22,0-3.18.67-5.85,2-8,1.33-2.15,3.42-3.22,6.26-3.22,1.86,0,3.5.59,4.91,1.77,2.29,1.96,3.44,5.21,3.44,9.75,0,3.25-.72,5.9-2.15,7.94Z" />
	<path class="cls-1"
		d="m233.82,429.55c-1.61-2.5-3.66-4.33-6.14-5.49-2.48-1.16-5.26-1.74-8.35-1.74-5.21,0-9.44,1.72-12.7,5.15-3.26,3.43-4.89,8.37-4.89,14.8,0,6.87,1.81,11.82,5.42,14.87,3.61,3.05,7.79,4.57,12.51,4.57,5.73,0,10.18-1.81,13.37-5.42,2.05-2.27,3.19-4.51,3.44-6.72h-9.92c-.52,1.09-1.12,1.94-1.81,2.56-1.25,1.14-2.88,1.71-4.88,1.71-1.89,0-3.5-.47-4.84-1.4-2.21-1.5-3.38-4.11-3.51-7.84h25.44c.04-3.21-.06-5.66-.31-7.37-.43-2.91-1.38-5.47-2.83-7.67Zm-22.06,8.63c.32-2.41,1.1-4.32,2.34-5.73,1.24-1.41,2.98-2.11,5.23-2.11,2.07,0,3.8.67,5.2,2,1.4,1.33,2.18,3.28,2.34,5.85h-15.11Z" />
	<path class="cls-1"
		d="m265.36,449.73l-9.14-39.52h-15.28v50.26h9.79v-34c0-.98-.01-2.35-.03-4.11-.02-1.76-.03-3.12-.03-4.08l9.45,42.18h10.2l9.51-42.18c0,.96-.01,2.31-.03,4.08s-.03,3.13-.03,4.11v34h9.79v-50.26h-15.11l-9.07,39.52Z" />
	<path class="cls-1"
		d="m312.16,422.11c-6.39,0-11.15,1.97-14.29,5.9-3.14,3.93-4.71,8.58-4.71,13.95s1.57,10.12,4.71,14c3.14,3.88,7.9,5.81,14.29,5.81s11.15-1.94,14.29-5.81c3.14-3.88,4.71-8.54,4.71-14s-1.57-10.01-4.71-13.95c-3.14-3.93-7.9-5.9-14.29-5.9Zm6.51,28.47c-1.52,2.02-3.71,3.04-6.55,3.04s-5.03-1.01-6.56-3.04-2.3-4.9-2.3-8.63.77-6.6,2.3-8.61,3.72-3.02,6.56-3.02,5.02,1.01,6.55,3.02c1.52,2.01,2.28,4.88,2.28,8.61s-.76,6.6-2.28,8.63Z" />
	<path class="cls-1"
		d="m357.71,443.53c0,2.39-.32,4.31-.96,5.76-1.23,2.68-3.5,4.02-6.82,4.02-2.59,0-4.33-.94-5.22-2.83-.5-1.07-.75-2.66-.75-4.77v-22.4h-9.96v22.4c0,4.25.53,7.47,1.6,9.65,1.91,3.96,5.61,5.93,11.12,5.93,1.91,0,3.57-.25,5-.75s2.89-1.43,4.42-2.8c.5-.43.93-.93,1.3-1.5.36-.57.59-.91.68-1.02v5.25h9.45v-37.17h-9.85v20.22Z" />
	<path class="cls-1"
		d="m402.89,425.44c-2.44-2.01-5.59-3.02-9.43-3.02-3.07,0-5.6.75-7.6,2.25-1.11.84-2.3,2.22-3.55,4.13v-5.42h-9.38v37.1h9.68v-20.12c0-2.3.32-4.18.96-5.66,1.23-2.8,3.49-4.19,6.79-4.19,2.68,0,4.5.95,5.46,2.86.52,1.05.78,2.55.78,4.5v22.61h9.96v-25.03c0-4.66-1.22-8-3.67-10.01Z" />
	<path class="cls-1"
		d="m428.61,430.57v-6.92h-6.04v-10.37h-9.62v10.37h-5.18v6.92h5.18v22.88c0,2.32.54,4.04,1.64,5.15,1.68,1.75,4.82,2.54,9.41,2.39l4.6-.17v-7.26c-.32.02-.64.04-.97.05-.33.01-.64.02-.94.02-1.98,0-3.16-.19-3.55-.56-.39-.38-.58-1.32-.58-2.85v-19.64h6.04Z" />
</svg>